<svg width="29" height="41" viewBox="0 0 29 41" fill="none" xmlns="http://www.w3.org/2000/svg">
<path d="M28.7762 11.5915C28.6353 11.4308 28.4322 11.3389 28.2185 11.3389H21.3228C21.0625 11.3389 20.8212 11.4753 20.6874 11.6981C20.5533 11.9211 20.5459 12.198 20.6677 12.428C20.7588 12.5996 20.8032 12.7656 20.8032 12.9342C20.8032 14.1967 18.1075 15.6083 14.5001 15.6083C10.8927 15.6083 8.19703 14.1967 8.19703 12.9342C8.19703 12.7654 8.24118 12.5996 8.3325 12.428C8.45452 12.198 8.44689 11.9211 8.31283 11.6981C8.17877 11.4753 7.93774 11.3389 7.67744 11.3389H0.781728C0.567993 11.3389 0.364895 11.4308 0.22401 11.5915C0.0831258 11.7519 0.0187041 11.9652 0.0466 12.1769L3.75435 40.3552C3.80292 40.7243 4.1172 41.0001 4.48928 41.0001H24.5107C24.883 41.0001 25.1973 40.7241 25.2457 40.3552L28.9534 12.1769C28.9815 11.9652 28.9171 11.7519 28.7762 11.5915ZM23.8607 39.517H5.13992L1.62744 12.8218H6.71674C6.71493 12.8591 6.71413 12.8964 6.71413 12.934C6.71413 15.3041 10.0616 17.0912 14.5003 17.0912C18.939 17.0912 22.2865 15.3041 22.2865 12.934C22.2865 12.8962 22.2857 12.8589 22.2839 12.8218H27.3732L23.8607 39.517Z" fill="#848484"/>
<path d="M9.59261 12.7253C9.69878 13.1207 10.1058 13.3553 10.5007 13.2495C10.8965 13.1434 11.1311 12.7372 11.0249 12.3414L8.67145 3.5576L10.7743 2.99427L12.7617 12.8022C12.833 13.1538 13.1422 13.3964 13.4876 13.3964C13.5364 13.3964 13.5857 13.3918 13.6357 13.3816C14.0369 13.3005 14.2966 12.9092 14.2149 12.5076L12.0713 1.92639C12.0308 1.7259 11.9092 1.5513 11.735 1.44333C11.562 1.33536 11.3505 1.30425 11.1528 1.35744L7.57146 2.31694C7.38141 2.36771 7.21945 2.49214 7.12111 2.66232C7.02297 2.83251 6.99628 3.0348 7.04726 3.22486L9.59261 12.7253Z" fill="#848484"/>
<path d="M15.9543 12.4964C15.9939 12.8776 16.3158 13.1611 16.6913 13.1611C16.7165 13.1611 16.7426 13.1599 16.7687 13.1571C17.1761 13.1148 17.4719 12.7501 17.4296 12.3429L16.4071 2.50127L18.246 3.00099L19.0231 11.1976C19.0618 11.6052 19.4251 11.9036 19.8313 11.8661C20.2389 11.8273 20.5383 11.4657 20.4998 11.0579L19.6741 2.35035C19.6448 2.0429 19.4283 1.78561 19.1302 1.70473L15.752 0.786575C15.5166 0.722555 15.2635 0.778547 15.0775 0.937093C14.8911 1.09524 14.7947 1.33546 14.82 1.5787L15.9543 12.4964Z" fill="#848484"/>
<path d="M22.1578 10.5492C22.5757 10.5775 22.9186 10.2632 22.9431 9.85439L23.4483 1.5976L24.7843 1.8021L24.4082 9.858C24.3889 10.2672 24.7054 10.6144 25.1142 10.6337C25.126 10.6341 25.1377 10.6345 25.1497 10.6345C25.5433 10.6345 25.8714 10.3248 25.8899 9.92764L26.2973 1.20525C26.3149 0.826143 26.0438 0.494803 25.6687 0.437606L22.8703 0.00893212C22.664 -0.0225762 22.4546 0.033617 22.2925 0.164668C22.1303 0.295317 22.0308 0.488782 22.0181 0.696497L21.4634 9.76388C21.4379 10.1727 21.749 10.5243 22.1578 10.5492Z" fill="#848484"/>
<path d="M1.80002 10.5026C1.87066 10.8552 2.18013 11.0986 2.52632 11.0986C2.57448 11.0986 2.62365 11.094 2.67262 11.0842C3.0742 11.0037 3.3345 10.6132 3.25422 10.2116L1.81126 3.01023L2.90803 2.55105L5.74298 10.4741C5.88086 10.86 6.30532 11.0607 6.69084 10.9224C7.07637 10.7846 7.27706 10.3601 7.13919 9.97458L4.04093 1.3154C3.97249 1.12394 3.8284 0.96881 3.64196 0.886527C3.45612 0.804645 3.24439 0.802839 3.05654 0.881108L0.678763 1.87653C0.353243 2.0126 0.168608 2.35999 0.238047 2.70618L1.80002 10.5026Z" fill="#848484"/>
<path d="M14.5003 21.7201C12.2514 21.7201 10.4219 23.5496 10.4219 25.7985C10.4219 28.0475 12.2514 29.877 14.5003 29.877C16.7492 29.877 18.5787 28.0475 18.5787 25.7985C18.5787 23.5496 16.749 21.7201 14.5003 21.7201ZM14.5003 28.3941C13.0694 28.3941 11.905 27.2296 11.905 25.7987C11.905 24.3678 13.0694 23.2034 14.5003 23.2034C15.9312 23.2034 17.0956 24.3678 17.0956 25.7987C17.0956 27.2294 15.9312 28.3941 14.5003 28.3941Z" fill="#848484"/>
</svg>
