<svg width="23" height="41" viewBox="0 0 23 41" fill="none" xmlns="http://www.w3.org/2000/svg">
<path d="M21.6118 21.5116H21.5809C22.0388 20.9065 22.3209 20.1614 22.3209 19.3457V18.5744C22.3209 17.4705 21.8905 16.5134 21.1092 15.8804C20.8036 15.6331 20.4602 15.4513 20.0902 15.3325C20.2897 13.9878 20.518 11.1648 19.1866 9.90819C18.9449 9.67964 18.6933 9.52864 18.4349 9.42511C18.8856 4.43485 16.3967 0.383804 14.3667 0.0274963C13.5775 -0.113542 12.625 0.2623 12.3081 1.72543C11.9694 3.29091 10.91 3.44817 8.91031 3.6103C7.75367 3.70485 6.44252 3.81131 5.29331 4.43016C4.47463 4.87066 3.94837 5.52057 3.7292 6.36075C3.41039 7.58301 3.85402 8.92581 4.23846 9.77282C3.53424 9.95058 2.9275 10.2415 2.46883 10.6999C1.01547 12.1531 1.6859 14.5605 2.09631 15.6435C2.0172 15.7025 1.93828 15.7619 1.86366 15.8279C1.09224 16.5116 0.667175 17.4864 0.667175 18.5746V19.3459C0.667175 20.1618 0.949253 20.9067 1.40714 21.5118H1.38897C0.99047 21.5118 0.667175 21.8347 0.667175 22.2336C0.667175 22.6325 0.99047 22.9554 1.38897 22.9554H2.93102L5.49647 40.3832C5.54863 40.7378 5.85239 40.9999 6.21046 40.9999H17.4988C17.8569 40.9999 18.1606 40.7378 18.2128 40.3832L20.7782 22.9554H21.6112C22.0097 22.9554 22.333 22.6325 22.333 22.2336C22.3336 21.8343 22.0103 21.5116 21.6118 21.5116ZM5.1261 6.72506C5.24174 6.28241 5.5205 5.94701 5.978 5.70087C6.86076 5.22502 7.96211 5.13555 9.02732 5.0496C10.9544 4.89313 13.1381 4.71614 13.7197 2.03134C13.8099 1.6133 13.9459 1.41952 14.1176 1.44921C15.223 1.64338 17.4045 4.86011 16.9989 9.29462C16.5467 9.3585 16.0802 9.48918 15.6038 9.62358C14.5612 9.91757 13.3778 10.2489 11.9303 10.0705L10.988 9.94922C9.16914 9.71324 7.31923 9.4759 5.74007 9.56029C5.38884 8.90452 4.88114 7.66486 5.1261 6.72506ZM3.4897 11.7204C4.63227 10.5792 7.91034 11.0051 10.8016 11.3807L11.751 11.5026C13.4927 11.721 14.8802 11.3278 15.9956 11.0127C17.2566 10.656 17.7733 10.5595 18.1956 10.957C18.926 11.6471 18.8801 13.7299 18.6531 15.194C18.5087 15.2091 18.363 15.2307 18.2153 15.2622C18.1925 15.2678 15.9038 15.8416 14.2895 15.8416C11.2861 15.8416 4.81765 14.9801 4.7442 14.9711C4.28397 14.9147 3.83663 14.9416 3.41332 15.0383C3.10546 14.1937 2.66105 12.5491 3.4897 11.7204ZM6.83419 39.556L6.20616 35.2887L10.4735 39.556H6.83419ZM12.5148 39.5561L6.23019 33.2715C6.13154 33.1729 6.00925 33.1213 5.88267 33.0918L5.33395 29.3641L15.526 39.5561H12.5148ZM16.9645 38.9533L4.98155 26.9703L4.4592 23.4225C4.47072 23.4358 4.47502 23.4526 4.48772 23.4653L17.3509 36.3285L16.9645 38.9533ZM17.6129 34.5493L6.01882 22.9552H9.03005L17.8479 31.7731C17.8946 31.8197 17.9514 31.8469 18.0061 31.8782L17.6129 34.5493ZM18.2612 30.1451L11.0712 22.955H14.0824L18.4361 27.3083C18.5013 27.3735 18.5775 27.4202 18.6572 27.4552L18.2612 30.1451ZM18.9096 25.7406L16.1238 22.9552H18.714H19.3196L18.9096 25.7406ZM20.8773 19.3457C20.8773 20.5396 19.907 21.5116 18.714 21.5116H4.27421C3.08124 21.5116 2.11096 20.5396 2.11096 19.3457V18.5744C2.11096 17.9056 2.36335 17.3141 2.82104 16.9082C3.2088 16.5649 3.71122 16.3837 4.25506 16.3837C4.35586 16.3837 4.45802 16.3901 4.56097 16.4028C4.83015 16.4387 11.1898 17.2854 14.2895 17.2854C16.0847 17.2854 18.4687 16.6876 18.5419 16.6687C19.1813 16.5333 19.7687 16.6519 20.2004 17.0027C20.637 17.3557 20.8773 17.914 20.8773 18.5744V19.3457Z" fill="#848484"/>
</svg>
